<svg width="1024" height="1024" viewBox="0 0 1024 1024" xmlns="http://www.w3.org/2000/svg">
  <!-- Background gradient -->
  <defs>
    <linearGradient id="bg-gradient" x1="0%" y1="0%" x2="100%" y2="100%">
      <stop offset="0%" style="stop-color:#4f46e5;stop-opacity:1" />
      <stop offset="50%" style="stop-color:#9333ea;stop-opacity:1" />
      <stop offset="100%" style="stop-color:#7c3aed;stop-opacity:1" />
    </linearGradient>
  </defs>
  
  <rect width="1024" height="1024" fill="url(#bg-gradient)"/>
  
  <!-- Startale Logo (centered) - using actual logo -->
  <g transform="translate(225, 120) scale(3.15)">
    <path d="M154.14 63.6385L127.779 89.9995L154.14 116.36L180.501 89.9995L154.14 63.6385Z" fill="white" opacity="0.95"/>
    <path d="M26.8608 63.6399L0.5 90.0004L26.8608 116.361L53.2215 90.0004L26.8608 63.6399Z" fill="white" opacity="0.95"/>
    <path d="M90.4992 0L64.1387 26.3608L90.4992 52.7216L116.86 26.3608L90.4992 0Z" fill="white" opacity="0.95"/>
    <path d="M90.4997 127.278L64.1387 153.639L90.4997 180L116.86 153.639L90.4997 127.278Z" fill="white" opacity="0.95"/>
    <path d="M154.141 26.3613H116.861V63.6413H154.141V26.3613Z" fill="white" opacity="0.95"/>
    <path d="M64.1431 26.3613H26.8633V63.6413H64.1431V26.3613Z" fill="white" opacity="0.95"/>
    <path d="M154.141 116.359H116.861V153.639H154.141V116.359Z" fill="white" opacity="0.95"/>
    <path d="M64.1431 116.359H26.8633V153.639H64.1431V116.359Z" fill="white" opacity="0.95"/>
  </g>
  
  <!-- Text: MiniApp -->
  <text x="512" y="820" font-family="Inter, system-ui, Arial, sans-serif" font-size="140" font-weight="bold" fill="white" text-anchor="middle" opacity="0.98">
    MiniApp
  </text>
  
  <!-- Subtitle -->
  <text x="512" y="940" font-family="Inter, system-ui, Arial, sans-serif" font-size="56" fill="white" text-anchor="middle" opacity="0.85">
    Powered by Startale
  </text>
</svg>