<svg width="181" height="180" viewBox="0 0 181 180" fill="none" xmlns="http://www.w3.org/2000/svg">
<g clip-path="url(#clip0_2242_17388)">
<path d="M154.14 63.6385L127.779 89.9995L154.14 116.36L180.501 89.9995L154.14 63.6385Z" fill="black"/>
<path d="M26.8608 63.6399L0.5 90.0004L26.8608 116.361L53.2215 90.0004L26.8608 63.6399Z" fill="black"/>
<path d="M90.4992 0L64.1387 26.3608L90.4992 52.7216L116.86 26.3608L90.4992 0Z" fill="black"/>
<path d="M90.4997 127.278L64.1387 153.639L90.4997 180L116.86 153.639L90.4997 127.278Z" fill="black"/>
<path d="M154.141 26.3613H116.861V63.6413H154.141V26.3613Z" fill="black"/>
<path d="M64.1431 26.3613H26.8633V63.6413H64.1431V26.3613Z" fill="black"/>
<path d="M154.141 116.359H116.861V153.639H154.141V116.359Z" fill="black"/>
<path d="M64.1431 116.359H26.8633V153.639H64.1431V116.359Z" fill="black"/>
</g>
<defs>
<clipPath id="clip0_2242_17388">
<rect width="180" height="180" fill="white" transform="translate(0.5)"/>
</clipPath>
</defs>
</svg>
